<?xml version="1.0" encoding="UTF-8" standalone="no"?>
<!-- Created with Inkscape (http://www.inkscape.org/) -->

<svg
   version="1.1"
   id="svg1"
   width="2999.3906"
   height="964.63153"
   viewBox="0 0 2999.3906 964.63153"
   xmlns="http://www.w3.org/2000/svg"
   xmlns:svg="http://www.w3.org/2000/svg">
  <defs
     id="defs1" />
  <g
     id="layer1"
     transform="translate(-386,-309.55762)">
    <rect
       style="fill:#504416"
       id="rect1"
       width="22.613083"
       height="30.150778"
       x="852.83624"
       y="396.26736" />
    <rect
       style="fill:#504416"
       id="rect2"
       width="22.613083"
       height="25.843523"
       x="853.91309"
       y="441.49353" />
    <rect
       style="fill:#504416"
       id="rect3"
       width="22.613083"
       height="27.99715"
       x="853.91309"
       y="487.79651" />
    <rect
       style="fill:#ff0000"
       id="BILIARD"
       width="197.05701"
       height="379.03833"
       x="778.82684"
       y="603.01556" />
    <rect
       style="fill:#504416"
       id="rect4"
       width="22.602133"
       height="27.278437"
       x="943.83386"
       y="396.70639" />
    <rect
       style="fill:#504416"
       id="rect5"
       width="21.822748"
       height="24.1609"
       x="944.61328"
       y="442.69003" />
    <rect
       style="fill:#504416"
       id="rect6"
       width="23.381517"
       height="21.822748"
       x="943.0545"
       y="490.23245" />
    <rect
       style="fill:#504416"
       id="rect7"
       width="20.263981"
       height="24.940285"
       x="976.56799"
       y="397.48578" />
    <rect
       style="fill:#504416"
       id="rect8"
       width="22.602133"
       height="28.057819"
       x="975.78864"
       y="441.13129" />
    <rect
       style="fill:#504416"
       id="rect9"
       width="20.263981"
       height="24.1609"
       x="976.56799"
       y="489.45306" />
    <rect
       style="fill:#504416"
       id="rect10"
       width="21.822748"
       height="26.499052"
       x="1065.4177"
       y="397.48578" />
    <rect
       style="fill:#504416"
       id="rect11"
       width="22.602133"
       height="24.1609"
       x="1064.6384"
       y="443.46942" />
    <rect
       style="fill:#504416"
       id="rect12"
       width="22.602133"
       height="23.381517"
       x="1064.6384"
       y="489.45306" />
    <rect
       style="fill:#504416"
       id="rect13"
       width="21.822748"
       height="24.1609"
       x="1104.387"
       y="397.48578" />
    <rect
       style="fill:#504416"
       id="rect14"
       width="19.484596"
       height="24.1609"
       x="1105.9457"
       y="444.24881" />
    <rect
       style="fill:#504416"
       id="rect15"
       width="19.484596"
       height="23.381517"
       x="1105.1664"
       y="489.45306" />
    <rect
       style="fill:#504416"
       id="rect16"
       width="19.484596"
       height="24.1609"
       x="1194.7955"
       y="399.04456" />
    <rect
       style="fill:#504416"
       id="rect17"
       width="22.602133"
       height="24.1609"
       x="1193.2367"
       y="443.46942" />
    <rect
       style="fill:#504416"
       id="rect18"
       width="23.381517"
       height="24.940285"
       x="1192.4574"
       y="487.89432" />
    <rect
       style="fill:#504416"
       id="rect19"
       width="22.602133"
       height="24.940285"
       x="1224.4121"
       y="397.48578" />
    <rect
       style="fill:#504416"
       id="rect20"
       width="21.043365"
       height="24.1609"
       x="1225.9708"
       y="443.46942" />
    <rect
       style="fill:#504416"
       id="rect21"
       width="20.263981"
       height="24.1609"
       x="1225.9708"
       y="488.67371" />
    <rect
       style="fill:#504416"
       id="rect22"
       width="21.043365"
       height="24.940285"
       x="1314.8206"
       y="397.48578" />
    <rect
       style="fill:#504416"
       id="rect23"
       width="21.822748"
       height="24.1609"
       x="1314.8206"
       y="443.46942" />
    <rect
       style="fill:#504416"
       id="rect24"
       width="22.602133"
       height="22.602133"
       x="1314.0413"
       y="489.45306" />
    <rect
       style="fill:#504416"
       id="rect25"
       width="22.602133"
       height="24.1609"
       x="1353.0104"
       y="398.26517" />
    <rect
       style="fill:#504416"
       id="rect26"
       width="21.043365"
       height="21.822748"
       x="1354.5692"
       y="445.0282" />
    <rect
       style="fill:#504416"
       id="rect27"
       width="21.043365"
       height="24.940285"
       x="1354.5692"
       y="488.67371" />
    <rect
       style="fill:#504416"
       id="rect28"
       width="21.043365"
       height="25.719667"
       x="1443.4189"
       y="396.70639" />
    <rect
       style="fill:#504416"
       id="rect32"
       width="21.529577"
       height="24.062469"
       x="1443.115"
       y="443.88925" />
    <rect
       style="fill:#504416"
       id="rect33"
       width="19.62991"
       height="23.429247"
       x="1444.3813"
       y="490.1145" />
    <rect
       style="fill:#504416"
       id="rect34"
       width="20.896355"
       height="25.328915"
       x="1474.7761"
       y="397.03076" />
    <rect
       style="fill:#504416"
       id="rect35"
       width="20.263132"
       height="24.062469"
       x="1475.4093"
       y="443.88925" />
    <rect
       style="fill:#504416"
       id="rect36"
       width="19.62991"
       height="24.062469"
       x="1475.4093"
       y="489.48129" />
    <rect
       style="fill:#504416"
       id="rect37"
       width="19.62991"
       height="22.796024"
       x="1564.6937"
       y="398.93042" />
    <rect
       style="fill:#504416"
       id="rect38"
       width="21.529577"
       height="24.062469"
       x="1563.4272"
       y="444.52246" />
    <rect
       style="fill:#504416"
       id="rect39"
       width="21.529577"
       height="24.695692"
       x="1564.0605"
       y="488.84805" />
    <rect
       style="fill:#504416"
       id="rect40"
       width="19.62991"
       height="25.328915"
       x="1604.5868"
       y="397.66397" />
    <rect
       style="fill:#504416"
       id="rect41"
       width="20.896355"
       height="24.062469"
       x="1603.3203"
       y="444.52246" />
    <rect
       style="fill:#504416"
       id="rect42"
       width="20.263132"
       height="23.429247"
       x="1603.9536"
       y="490.1145" />
    <rect
       style="fill:#504416"
       id="rect43"
       width="20.896355"
       height="23.429247"
       x="1691.9716"
       y="399.56363" />
    <rect
       style="fill:#504416"
       id="rect44"
       width="20.896355"
       height="22.796024"
       x="1725.5323"
       y="400.19687" />
    <rect
       style="fill:#504416"
       id="rect45"
       width="17.73024"
       height="24.062469"
       x="1725.5323"
       y="443.88925" />
    <rect
       style="fill:#504416"
       id="rect46"
       width="22.162802"
       height="22.796024"
       x="1691.9716"
       y="445.78891" />
    <rect
       style="fill:#504416"
       id="rect47"
       width="22.162802"
       height="20.896355"
       x="1691.9716"
       y="490.74774" />
    <rect
       style="fill:#504416"
       id="rect48"
       width="19.62991"
       height="21.529577"
       x="1724.8992"
       y="490.1145" />
    <rect
       style="fill:#504416"
       id="rect52"
       width="21.574274"
       height="24.731485"
       x="1813.2914"
       y="397.80856" />
    <rect
       style="fill:#504416"
       id="rect53"
       width="22.100475"
       height="22.626678"
       x="1812.7653"
       y="445.16672" />
    <rect
       style="fill:#504416"
       id="rect54"
       width="20.52187"
       height="23.15288"
       x="1814.3439"
       y="490.42007" />
    <rect
       style="fill:#504416"
       id="rect55"
       width="20.52187"
       height="24.731485"
       x="1991.1476"
       y="398.86096" />
    <rect
       style="fill:#504416"
       id="rect56"
       width="22.626678"
       height="23.679081"
       x="1990.0952"
       y="446.21912" />
    <rect
       style="fill:#504416"
       id="rect57"
       width="17.890862"
       height="21.048073"
       x="1993.7787"
       y="492.5249" />
    <rect
       style="fill:#504416"
       id="rect58"
       width="19.995668"
       height="21.574274"
       x="2080.6021"
       y="398.33478" />
    <rect
       style="fill:#504416"
       id="rect59"
       width="22.100475"
       height="23.15288"
       x="2079.0234"
       y="444.11432" />
    <rect
       style="fill:#504416"
       id="rect60"
       width="19.469467"
       height="21.574274"
       x="2112.7002"
       y="444.64053" />
    <rect
       style="fill:#504416"
       id="rect61"
       width="19.995668"
       height="23.15288"
       x="2112.7002"
       y="398.86096" />
    <rect
       style="fill:#504416"
       id="rect62"
       width="22.100475"
       height="21.048073"
       x="2080.0757"
       y="490.94629" />
    <rect
       style="fill:#504416"
       id="rect63"
       width="18.943264"
       height="23.679081"
       x="2114.8049"
       y="490.42007" />
    <rect
       style="fill:#504416"
       id="rect64"
       width="22.100475"
       height="20.52187"
       x="2200.5759"
       y="399.38718" />
    <rect
       style="fill:#504416"
       id="rect65"
       width="21.048073"
       height="22.626678"
       x="2201.6284"
       y="444.11432" />
    <rect
       style="fill:#504416"
       id="rect66"
       width="20.52187"
       height="22.626678"
       x="2201.6284"
       y="490.42007" />
    <rect
       style="fill:#504416"
       id="rect67"
       width="18.943264"
       height="23.15288"
       x="2242.6721"
       y="399.91336" />
    <rect
       style="fill:#504416"
       id="rect68"
       width="19.995668"
       height="24.205282"
       x="2242.146"
       y="444.64053" />
    <rect
       style="fill:#504416"
       id="rect69"
       width="20.52187"
       height="22.626678"
       x="2241.6196"
       y="489.36768" />
    <rect
       style="fill:#504416"
       id="rect70"
       width="21.048073"
       height="20.52187"
       x="2329.4954"
       y="399.38718" />
    <rect
       style="fill:#504416"
       id="rect71"
       width="21.048073"
       height="23.15288"
       x="2328.4429"
       y="445.16672" />
    <rect
       style="fill:#504416"
       id="rect72"
       width="21.574274"
       height="20.52187"
       x="2328.9692"
       y="490.42007" />
    <rect
       style="fill:#504416"
       id="rect73"
       width="21.574274"
       height="23.15288"
       x="2362.1199"
       y="398.33478" />
    <rect
       style="fill:#504416"
       id="rect74"
       width="21.574274"
       height="21.048073"
       x="2362.1199"
       y="447.27155" />
    <rect
       style="fill:#504416"
       id="rect75"
       width="18.943264"
       height="22.100475"
       x="2364.2246"
       y="490.94629" />
    <rect
       style="fill:#504416"
       id="rect76"
       width="22.626678"
       height="23.679081"
       x="2450.5217"
       y="399.91336" />
    <rect
       style="fill:#504416"
       id="rect77"
       width="21.048073"
       height="22.100475"
       x="2451.5742"
       y="444.64053" />
    <rect
       style="fill:#504416"
       id="rect78"
       width="21.574274"
       height="22.626678"
       x="2451.5742"
       y="489.36768" />
    <rect
       style="fill:#504416"
       id="rect79"
       width="19.995668"
       height="23.15288"
       x="2491.5654"
       y="398.86096" />
    <rect
       style="fill:#504416"
       id="rect80"
       width="22.100475"
       height="23.15288"
       x="2489.9868"
       y="445.69293" />
    <rect
       style="fill:#504416"
       id="rect81"
       width="19.995668"
       height="22.626678"
       x="2491.0393"
       y="490.42007" />
    <rect
       style="fill:#504416"
       id="rect82"
       width="21.574274"
       height="23.679081"
       x="2579.9675"
       y="398.86096" />
    <rect
       style="fill:#504416"
       id="rect83"
       width="24.731485"
       height="21.574274"
       x="2577.3364"
       y="446.74533" />
    <rect
       style="fill:#504416"
       id="rect84"
       width="17.36466"
       height="18.417063"
       x="2580.4937"
       y="492.5249" />
    <rect
       style="fill:#504416"
       id="rect85"
       width="18.417063"
       height="21.574274"
       x="2614.1707"
       y="401.49197" />
    <rect
       style="fill:#504416"
       id="rect86"
       width="17.890862"
       height="21.574274"
       x="2613.6443"
       y="447.79773" />
    <rect
       style="fill:#504416"
       id="rect87"
       width="18.417063"
       height="21.048073"
       x="2614.1707"
       y="491.47247" />
    <rect
       style="fill:#504416"
       id="rect88"
       width="20.52187"
       height="23.679081"
       x="2700.4678"
       y="399.38718" />
    <rect
       style="fill:#504416"
       id="rect89"
       width="21.048073"
       height="21.574274"
       x="2701.52"
       y="447.27155" />
    <rect
       style="fill:#504416"
       id="rect90"
       width="22.626678"
       height="21.574274"
       x="2701.52"
       y="490.94629" />
    <rect
       style="fill:#504416"
       id="rect91"
       width="21.048073"
       height="25.783888"
       x="2740.459"
       y="398.33478" />
    <rect
       style="fill:#504416"
       id="rect92"
       width="21.574274"
       height="27.362494"
       x="2739.9329"
       y="443.58813" />
    <rect
       style="fill:#504416"
       id="rect93"
       width="21.048073"
       height="22.626678"
       x="2739.9329"
       y="489.89389" />
    <rect
       style="fill:#504416"
       id="rect94"
       width="19.995668"
       height="23.679081"
       x="2828.8608"
       y="398.86096" />
    <rect
       style="fill:#504416"
       id="rect95"
       width="21.048073"
       height="25.783888"
       x="2830.4395"
       y="443.06192" />
    <rect
       style="fill:#504416"
       id="rect96"
       width="21.574274"
       height="21.048073"
       x="2829.3872"
       y="490.42007" />
    <rect
       style="fill:#504416"
       id="rect97"
       width="19.995668"
       height="24.205282"
       x="2861.4854"
       y="398.86096" />
    <rect
       style="fill:#504416"
       id="rect98"
       width="22.626678"
       height="23.679081"
       x="2859.9067"
       y="444.11432" />
    <rect
       style="fill:#504416"
       id="rect99"
       width="21.048073"
       height="23.15288"
       x="2860.4331"
       y="489.89389" />
    <rect
       style="fill:#504416"
       id="rect100"
       width="19.469467"
       height="23.679081"
       x="2950.9397"
       y="399.38718" />
    <rect
       style="fill:#504416"
       id="rect101"
       width="21.574274"
       height="23.679081"
       x="2949.3611"
       y="445.16672" />
    <rect
       style="fill:#504416"
       id="rect102"
       width="20.52187"
       height="22.626678"
       x="2949.8872"
       y="489.89389" />
    <rect
       style="fill:#504416"
       id="rect103"
       width="21.048073"
       height="22.626678"
       x="2989.3525"
       y="399.38718" />
    <rect
       style="fill:#504416"
       id="rect104"
       width="19.469467"
       height="23.679081"
       x="2989.8787"
       y="445.69293" />
    <rect
       style="fill:#504416"
       id="rect105"
       width="19.995668"
       height="21.574274"
       x="2989.3525"
       y="490.42007" />
    <rect
       style="fill:#504416"
       id="rect106"
       width="22.626678"
       height="24.731485"
       x="3077.2283"
       y="398.33478" />
    <rect
       style="fill:#504416"
       id="rect107"
       width="22.100475"
       height="22.100475"
       x="3078.2805"
       y="445.69293" />
    <rect
       style="fill:#504416"
       id="rect108"
       width="20.52187"
       height="24.731485"
       x="3110.905"
       y="398.86096" />
    <rect
       style="fill:#504416"
       id="rect109"
       width="23.679081"
       height="23.679081"
       x="3108.8003"
       y="445.16672" />
    <rect
       style="fill:#504416"
       id="rect110"
       width="28.414898"
       height="20.52187"
       x="3076.7019"
       y="491.47247" />
    <rect
       style="fill:#504416"
       id="rect111"
       width="17.890862"
       height="21.048073"
       x="3112.4836"
       y="491.47247" />
    <rect
       style="fill:#504416"
       id="rect112"
       width="22.626678"
       height="23.15288"
       x="3198.2546"
       y="398.86096" />
    <rect
       style="fill:#504416"
       id="rect113"
       width="22.100475"
       height="23.679081"
       x="3198.7808"
       y="444.11432" />
    <rect
       style="fill:#504416"
       id="rect114"
       width="22.100475"
       height="22.626678"
       x="3198.7808"
       y="489.89389" />
    <rect
       style="fill:#504416"
       id="rect115"
       width="22.613083"
       height="30.150778"
       x="855.02954"
       y="1065.2212" />
    <rect
       style="fill:#504416"
       id="rect116"
       width="22.613083"
       height="25.843523"
       x="856.10638"
       y="1110.4474" />
    <rect
       style="fill:#504416"
       id="rect117"
       width="22.613083"
       height="27.99715"
       x="856.10638"
       y="1156.7504" />
    <rect
       style="fill:#504416"
       id="rect118"
       width="22.602133"
       height="27.278437"
       x="946.02716"
       y="1065.6603" />
    <rect
       style="fill:#504416"
       id="rect119"
       width="21.822748"
       height="24.1609"
       x="946.80658"
       y="1111.6439" />
    <rect
       style="fill:#504416"
       id="rect120"
       width="23.381517"
       height="21.822748"
       x="945.2478"
       y="1159.1863" />
    <rect
       style="fill:#504416"
       id="rect121"
       width="20.263981"
       height="24.940285"
       x="978.76129"
       y="1066.4397" />
    <rect
       style="fill:#504416"
       id="rect122"
       width="22.602133"
       height="28.057819"
       x="977.98193"
       y="1110.0852" />
    <rect
       style="fill:#504416"
       id="rect123"
       width="20.263981"
       height="24.1609"
       x="978.76129"
       y="1158.407" />
    <rect
       style="fill:#504416"
       id="rect124"
       width="21.822748"
       height="26.499052"
       x="1067.611"
       y="1066.4397" />
    <rect
       style="fill:#504416"
       id="rect125"
       width="22.602133"
       height="24.1609"
       x="1066.8317"
       y="1112.4233" />
    <rect
       style="fill:#504416"
       id="rect126"
       width="22.602133"
       height="23.381517"
       x="1066.8317"
       y="1158.407" />
    <rect
       style="fill:#504416"
       id="rect127"
       width="21.822748"
       height="24.1609"
       x="1106.5802"
       y="1066.4397" />
    <rect
       style="fill:#504416"
       id="rect128"
       width="19.484596"
       height="24.1609"
       x="1108.1389"
       y="1113.2026" />
    <rect
       style="fill:#504416"
       id="rect129"
       width="19.484596"
       height="23.381517"
       x="1107.3596"
       y="1158.407" />
    <rect
       style="fill:#504416"
       id="rect130"
       width="19.484596"
       height="24.1609"
       x="1196.9888"
       y="1067.9984" />
    <rect
       style="fill:#504416"
       id="rect131"
       width="22.602133"
       height="24.1609"
       x="1195.4299"
       y="1112.4233" />
    <rect
       style="fill:#504416"
       id="rect132"
       width="23.381517"
       height="24.940285"
       x="1194.6506"
       y="1156.8481" />
    <rect
       style="fill:#504416"
       id="rect133"
       width="22.602133"
       height="24.940285"
       x="1226.6053"
       y="1066.4397" />
    <rect
       style="fill:#504416"
       id="rect134"
       width="21.043365"
       height="24.1609"
       x="1228.1641"
       y="1112.4233" />
    <rect
       style="fill:#504416"
       id="rect135"
       width="20.263981"
       height="24.1609"
       x="1228.1641"
       y="1157.6276" />
    <rect
       style="fill:#504416"
       id="rect136"
       width="21.043365"
       height="24.940285"
       x="1317.0138"
       y="1066.4397" />
    <rect
       style="fill:#504416"
       id="rect137"
       width="21.822748"
       height="24.1609"
       x="1317.0138"
       y="1112.4233" />
    <rect
       style="fill:#504416"
       id="rect138"
       width="22.602133"
       height="22.602133"
       x="1316.2345"
       y="1158.407" />
    <rect
       style="fill:#504416"
       id="rect139"
       width="22.602133"
       height="24.1609"
       x="1355.2036"
       y="1067.219" />
    <rect
       style="fill:#504416"
       id="rect140"
       width="21.043365"
       height="21.822748"
       x="1356.7625"
       y="1113.9821" />
    <rect
       style="fill:#504416"
       id="rect141"
       width="21.043365"
       height="24.940285"
       x="1356.7625"
       y="1157.6276" />
    <rect
       style="fill:#504416"
       id="rect142"
       width="21.043365"
       height="25.719667"
       x="1445.6122"
       y="1065.6603" />
    <rect
       style="fill:#504416"
       id="rect143"
       width="21.529577"
       height="24.062469"
       x="1445.3082"
       y="1112.8431" />
    <rect
       style="fill:#504416"
       id="rect144"
       width="19.62991"
       height="23.429247"
       x="1446.5746"
       y="1159.0684" />
    <rect
       style="fill:#504416"
       id="rect145"
       width="20.896355"
       height="25.328915"
       x="1476.9694"
       y="1065.9846" />
    <rect
       style="fill:#504416"
       id="rect146"
       width="20.263132"
       height="24.062469"
       x="1477.6025"
       y="1112.8431" />
    <rect
       style="fill:#504416"
       id="rect147"
       width="19.62991"
       height="24.062469"
       x="1477.6025"
       y="1158.4352" />
    <rect
       style="fill:#504416"
       id="rect148"
       width="19.62991"
       height="22.796024"
       x="1566.887"
       y="1067.8843" />
    <rect
       style="fill:#504416"
       id="rect149"
       width="21.529577"
       height="24.062469"
       x="1565.6205"
       y="1113.4763" />
    <rect
       style="fill:#504416"
       id="rect150"
       width="21.529577"
       height="24.695692"
       x="1566.2538"
       y="1157.8019" />
    <rect
       style="fill:#504416"
       id="rect151"
       width="19.62991"
       height="25.328915"
       x="1606.78"
       y="1066.6178" />
    <rect
       style="fill:#504416"
       id="rect152"
       width="20.896355"
       height="24.062469"
       x="1605.5135"
       y="1113.4763" />
    <rect
       style="fill:#504416"
       id="rect153"
       width="20.263132"
       height="23.429247"
       x="1606.1469"
       y="1159.0684" />
    <rect
       style="fill:#504416"
       id="rect154"
       width="20.896355"
       height="23.429247"
       x="1694.1648"
       y="1068.5175" />
    <rect
       style="fill:#504416"
       id="rect155"
       width="20.896355"
       height="22.796024"
       x="1727.7256"
       y="1069.1508" />
    <rect
       style="fill:#504416"
       id="rect156"
       width="17.73024"
       height="24.062469"
       x="1727.7256"
       y="1112.8431" />
    <rect
       style="fill:#504416"
       id="rect157"
       width="22.162802"
       height="22.796024"
       x="1694.1648"
       y="1114.7428" />
    <rect
       style="fill:#504416"
       id="rect158"
       width="22.162802"
       height="20.896355"
       x="1694.1648"
       y="1159.7017" />
    <rect
       style="fill:#504416"
       id="rect159"
       width="19.62991"
       height="21.529577"
       x="1727.0924"
       y="1159.0684" />
    <rect
       style="fill:#504416"
       id="rect160"
       width="21.574274"
       height="24.731485"
       x="1815.4846"
       y="1066.7625" />
    <rect
       style="fill:#504416"
       id="rect161"
       width="22.100475"
       height="22.626678"
       x="1814.9585"
       y="1114.1206" />
    <rect
       style="fill:#504416"
       id="rect162"
       width="20.52187"
       height="23.15288"
       x="1816.5371"
       y="1159.3739" />
    <rect
       style="fill:#504416"
       id="rect163"
       width="20.52187"
       height="24.731485"
       x="1993.3408"
       y="1067.8148" />
    <rect
       style="fill:#504416"
       id="rect164"
       width="22.626678"
       height="23.679081"
       x="1992.2885"
       y="1115.173" />
    <rect
       style="fill:#504416"
       id="rect165"
       width="17.890862"
       height="21.048073"
       x="1995.9719"
       y="1161.4788" />
    <rect
       style="fill:#504416"
       id="rect166"
       width="19.995668"
       height="21.574274"
       x="2082.7954"
       y="1067.2887" />
    <rect
       style="fill:#504416"
       id="rect167"
       width="22.100475"
       height="23.15288"
       x="2081.2168"
       y="1113.0682" />
    <rect
       style="fill:#504416"
       id="rect168"
       width="19.469467"
       height="21.574274"
       x="2114.8936"
       y="1113.5944" />
    <rect
       style="fill:#504416"
       id="rect169"
       width="19.995668"
       height="23.15288"
       x="2114.8936"
       y="1067.8148" />
    <rect
       style="fill:#504416"
       id="rect170"
       width="22.100475"
       height="21.048073"
       x="2082.269"
       y="1159.9001" />
    <rect
       style="fill:#504416"
       id="rect171"
       width="18.943264"
       height="23.679081"
       x="2116.9983"
       y="1159.3739" />
    <rect
       style="fill:#504416"
       id="rect172"
       width="22.100475"
       height="20.52187"
       x="2202.7693"
       y="1068.3411" />
    <rect
       style="fill:#504416"
       id="rect173"
       width="21.048073"
       height="22.626678"
       x="2203.8218"
       y="1113.0682" />
    <rect
       style="fill:#504416"
       id="rect174"
       width="20.52187"
       height="22.626678"
       x="2203.8218"
       y="1159.3739" />
    <rect
       style="fill:#504416"
       id="rect175"
       width="18.943264"
       height="23.15288"
       x="2244.8655"
       y="1068.8672" />
    <rect
       style="fill:#504416"
       id="rect176"
       width="19.995668"
       height="24.205282"
       x="2244.3394"
       y="1113.5944" />
    <rect
       style="fill:#504416"
       id="rect177"
       width="20.52187"
       height="22.626678"
       x="2243.813"
       y="1158.3215" />
    <rect
       style="fill:#504416"
       id="rect178"
       width="21.048073"
       height="20.52187"
       x="2331.6887"
       y="1068.3411" />
    <rect
       style="fill:#504416"
       id="rect179"
       width="21.048073"
       height="23.15288"
       x="2330.6362"
       y="1114.1206" />
    <rect
       style="fill:#504416"
       id="rect180"
       width="21.574274"
       height="20.52187"
       x="2331.1626"
       y="1159.3739" />
    <rect
       style="fill:#504416"
       id="rect181"
       width="21.574274"
       height="23.15288"
       x="2364.3132"
       y="1067.2887" />
    <rect
       style="fill:#504416"
       id="rect182"
       width="21.574274"
       height="21.048073"
       x="2364.3132"
       y="1116.2255" />
    <rect
       style="fill:#504416"
       id="rect183"
       width="18.943264"
       height="22.100475"
       x="2366.418"
       y="1159.9001" />
    <rect
       style="fill:#504416"
       id="rect184"
       width="22.626678"
       height="23.679081"
       x="2452.7151"
       y="1068.8672" />
    <rect
       style="fill:#504416"
       id="rect185"
       width="21.048073"
       height="22.100475"
       x="2453.7676"
       y="1113.5944" />
    <rect
       style="fill:#504416"
       id="rect186"
       width="21.574274"
       height="22.626678"
       x="2453.7676"
       y="1158.3215" />
    <rect
       style="fill:#504416"
       id="rect187"
       width="19.995668"
       height="23.15288"
       x="2493.7588"
       y="1067.8148" />
    <rect
       style="fill:#504416"
       id="rect188"
       width="22.100475"
       height="23.15288"
       x="2492.1802"
       y="1114.6469" />
    <rect
       style="fill:#504416"
       id="rect189"
       width="19.995668"
       height="22.626678"
       x="2493.2327"
       y="1159.3739" />
    <rect
       style="fill:#504416"
       id="rect190"
       width="21.574274"
       height="23.679081"
       x="2582.1609"
       y="1067.8148" />
    <rect
       style="fill:#504416"
       id="rect191"
       width="24.731485"
       height="21.574274"
       x="2579.5298"
       y="1115.6992" />
    <rect
       style="fill:#504416"
       id="rect192"
       width="17.36466"
       height="18.417063"
       x="2582.687"
       y="1161.4788" />
    <rect
       style="fill:#504416"
       id="rect193"
       width="18.417063"
       height="21.574274"
       x="2616.364"
       y="1070.4458" />
    <rect
       style="fill:#504416"
       id="rect194"
       width="17.890862"
       height="21.574274"
       x="2615.8376"
       y="1116.7516" />
    <rect
       style="fill:#504416"
       id="rect195"
       width="18.417063"
       height="21.048073"
       x="2616.364"
       y="1160.4264" />
    <rect
       style="fill:#504416"
       id="rect196"
       width="20.52187"
       height="23.679081"
       x="2702.6611"
       y="1068.3411" />
    <rect
       style="fill:#504416"
       id="rect197"
       width="21.048073"
       height="21.574274"
       x="2703.7134"
       y="1116.2255" />
    <rect
       style="fill:#504416"
       id="rect198"
       width="22.626678"
       height="21.574274"
       x="2703.7134"
       y="1159.9001" />
    <rect
       style="fill:#504416"
       id="rect199"
       width="21.048073"
       height="25.783888"
       x="2742.6523"
       y="1067.2887" />
    <rect
       style="fill:#504416"
       id="rect200"
       width="21.574274"
       height="27.362494"
       x="2742.1262"
       y="1112.542" />
    <rect
       style="fill:#504416"
       id="rect201"
       width="21.048073"
       height="22.626678"
       x="2742.1262"
       y="1158.8478" />
    <rect
       style="fill:#504416"
       id="rect202"
       width="19.995668"
       height="23.679081"
       x="2831.0542"
       y="1067.8148" />
    <rect
       style="fill:#504416"
       id="rect203"
       width="21.048073"
       height="25.783888"
       x="2832.6328"
       y="1112.0157" />
    <rect
       style="fill:#504416"
       id="rect204"
       width="21.574274"
       height="21.048073"
       x="2831.5806"
       y="1159.3739" />
    <rect
       style="fill:#504416"
       id="rect205"
       width="19.995668"
       height="24.205282"
       x="2863.6787"
       y="1067.8148" />
    <rect
       style="fill:#504416"
       id="rect206"
       width="22.626678"
       height="23.679081"
       x="2862.1001"
       y="1113.0682" />
    <rect
       style="fill:#504416"
       id="rect207"
       width="21.048073"
       height="23.15288"
       x="2862.6265"
       y="1158.8478" />
    <rect
       style="fill:#504416"
       id="rect208"
       width="19.469467"
       height="23.679081"
       x="2953.1331"
       y="1068.3411" />
    <rect
       style="fill:#504416"
       id="rect209"
       width="21.574274"
       height="23.679081"
       x="2951.5544"
       y="1114.1206" />
    <rect
       style="fill:#504416"
       id="rect210"
       width="20.52187"
       height="22.626678"
       x="2952.0806"
       y="1158.8478" />
    <rect
       style="fill:#504416"
       id="rect211"
       width="21.048073"
       height="22.626678"
       x="2991.5459"
       y="1068.3411" />
    <rect
       style="fill:#504416"
       id="rect212"
       width="19.469467"
       height="23.679081"
       x="2992.072"
       y="1114.6469" />
    <rect
       style="fill:#504416"
       id="rect213"
       width="19.995668"
       height="21.574274"
       x="2991.5459"
       y="1159.3739" />
    <rect
       style="fill:#504416"
       id="rect214"
       width="22.626678"
       height="24.731485"
       x="3079.4216"
       y="1067.2887" />
    <rect
       style="fill:#504416"
       id="rect215"
       width="22.100475"
       height="22.100475"
       x="3080.4739"
       y="1114.6469" />
    <rect
       style="fill:#504416"
       id="rect216"
       width="20.52187"
       height="24.731485"
       x="3113.0984"
       y="1067.8148" />
    <rect
       style="fill:#504416"
       id="rect217"
       width="23.679081"
       height="23.679081"
       x="3110.9937"
       y="1114.1206" />
    <rect
       style="fill:#504416"
       id="rect218"
       width="28.414898"
       height="20.52187"
       x="3078.8953"
       y="1160.4264" />
    <rect
       style="fill:#504416"
       id="rect219"
       width="17.890862"
       height="21.048073"
       x="3114.677"
       y="1160.4264" />
    <rect
       style="fill:#504416"
       id="rect220"
       width="22.626678"
       height="23.15288"
       x="3200.448"
       y="1067.8148" />
    <rect
       style="fill:#504416"
       id="rect221"
       width="22.100475"
       height="23.679081"
       x="3200.9741"
       y="1113.0682" />
    <rect
       style="fill:#504416"
       id="rect222"
       width="22.100475"
       height="22.626678"
       x="3200.9741"
       y="1158.8478" />
    <rect
       style="fill:#000080"
       id="rect223"
       width="2996.749"
       height="9.7773209"
       x="388.64148"
       y="311.61343" />
    <rect
       style="fill:#000080;stroke-width:1.28614"
       id="rect224"
       width="15.634223"
       height="964.63153"
       x="3367.6116"
       y="309.55762" />
    <rect
       style="fill:#000080;stroke-width:2.48286"
       id="rect225"
       width="2996"
       height="9"
       x="386"
       y="1265" />
    <rect
       style="fill:#000080;stroke-width:2.46102"
       id="rect226"
       width="11"
       height="963"
       x="387"
       y="310" />
  </g>
</svg>
